<svg width="159" height="36" viewBox="0 0 159 36" fill="none" xmlns="http://www.w3.org/2000/svg">
<path d="M19.6865 27.4159L0.175748 27.22L11.1354 7.16689L0.37817 7.05888L0.428819 2.01422L19.9396 2.21011L9.01502 22.2635L19.7371 22.3712L19.6865 27.4159ZM39.7496 27.6173L38.5895 27.6057L36.7522 25.0031C36.2911 25.4086 35.8009 25.7905 35.2817 26.1485C34.7743 26.495 34.238 26.8002 33.6728 27.0641C33.1077 27.3162 32.5256 27.5155 31.9265 27.6618C31.339 27.8083 30.7406 27.8784 30.1313 27.8723C28.8071 27.859 27.5614 27.6238 26.394 27.1668C25.2384 26.7099 24.2254 26.0551 23.355 25.2026C22.4965 24.3385 21.8214 23.2887 21.3299 22.0532C20.8384 20.8177 20.6005 19.4149 20.6162 17.8446C20.631 16.3799 20.8964 15.0407 21.4125 13.827C21.9287 12.6017 22.6248 11.5539 23.5008 10.6838C24.3885 9.81375 25.4148 9.14433 26.5797 8.67554C27.7565 8.19514 29.0069 7.96159 30.3311 7.97488C30.9404 7.981 31.5431 8.06323 32.1392 8.22157C32.7353 8.3799 33.3133 8.59665 33.873 8.87182C34.4328 9.14698 34.9628 9.46873 35.463 9.83705C35.975 10.2055 36.4515 10.6029 36.8925 11.0292L38.7781 8.81559L39.9382 8.82724L39.7496 27.6173ZM35.012 17.9892C35.0186 17.333 34.896 16.6989 34.6444 16.087C34.4045 15.4634 34.0702 14.9151 33.6413 14.442C33.2126 13.9572 32.7066 13.5713 32.1236 13.2842C31.5523 12.9854 30.9386 12.8328 30.2824 12.8262C29.6261 12.8196 29.004 12.9247 28.4158 13.1415C27.8394 13.3583 27.3322 13.6814 26.8943 14.1106C26.4681 14.5399 26.1287 15.0756 25.8761 15.7177C25.6237 16.348 25.4934 17.0733 25.4851 17.8935C25.4769 18.7138 25.5926 19.4474 25.8322 20.0944C26.0719 20.7296 26.4005 21.2662 26.818 21.704C27.2473 22.1419 27.7479 22.4751 28.3198 22.7035C28.9035 22.932 29.5234 23.0496 30.1796 23.0562C30.8359 23.0627 31.4525 22.9283 32.0295 22.6528C32.6183 22.3658 33.1319 21.99 33.5702 21.5257C34.0086 21.0496 34.3539 20.5081 34.6061 19.9012C34.8701 19.2827 35.0054 18.6454 35.012 17.9892ZM47.753 34.8699L42.9192 34.8214L43.1802 8.82463L44.3403 8.83628L46.2335 11.123C46.6712 10.7172 47.1496 10.3353 47.6689 9.97718C48.1881 9.61909 48.7244 9.31391 49.2778 9.06164C49.843 8.79777 50.4251 8.59267 51.0243 8.44633C51.6234 8.3 52.2277 8.22989 52.837 8.23601C54.1612 8.2493 55.4009 8.502 56.5562 8.99409C57.7233 9.47458 58.736 10.1527 59.5945 11.0286C60.4646 11.9046 61.1455 12.9603 61.637 14.1958C62.1287 15.4195 62.367 16.7755 62.3521 18.2637C62.3365 19.8105 62.0706 21.2024 61.5542 22.4395C61.038 23.6648 60.3361 24.7067 59.4485 25.565C58.5728 26.4117 57.5467 27.0577 56.3703 27.5029C55.2056 27.9483 53.9612 28.1643 52.6371 28.151C52.2152 28.1468 51.7938 28.0957 51.3729 27.9977C50.9637 27.8998 50.5548 27.7727 50.1462 27.6162C49.7495 27.4482 49.3529 27.2625 48.9564 27.0593C48.5717 26.8562 48.1988 26.6474 47.8377 26.4328L47.753 34.8699ZM57.5359 18.2153C57.5439 17.4185 57.4222 16.7024 57.1707 16.067C56.931 15.4318 56.5965 14.8952 56.1673 14.4573C55.7382 14.0076 55.2319 13.6627 54.6483 13.4224C54.0648 13.1822 53.4449 13.0588 52.7887 13.0522C52.1325 13.0456 51.5102 13.1565 50.922 13.385C50.3454 13.6136 49.8381 13.9484 49.4001 14.3893C48.9622 14.8185 48.6111 15.3482 48.347 15.9784C48.0945 16.6087 47.9643 17.3223 47.9563 18.1191C47.9487 18.8808 48.0647 19.5793 48.3044 20.2145C48.5559 20.8499 48.8961 21.3924 49.3252 21.8421C49.7544 22.2917 50.2548 22.6424 50.8265 22.8943C51.4099 23.1463 52.0297 23.2755 52.686 23.2821C53.3422 23.2887 53.9645 23.1719 54.5529 22.9317C55.1412 22.6915 55.6544 22.3509 56.0925 21.91C56.5305 21.4691 56.8758 20.9334 57.1282 20.3031C57.3924 19.6729 57.5283 18.977 57.5359 18.2153ZM70.2525 7.76044L70.1512 17.8498L75.1958 17.9004C75.8872 17.9074 76.5389 17.785 77.1508 17.5333C77.7629 17.2699 78.2997 16.912 78.7613 16.4596C79.2229 16.0072 79.5856 15.4776 79.8495 14.8708C80.1253 14.2525 80.2666 13.5976 80.2736 12.9062C80.2805 12.2149 80.1523 11.5631 79.8889 10.9511C79.6373 10.3274 79.2853 9.78482 78.8329 9.32322C78.3805 8.86163 77.8509 8.49887 77.2442 8.23495C76.6375 7.95932 75.9885 7.81803 75.2971 7.81109L70.2525 7.76044ZM70.0501 27.9215L65.0054 27.8709L65.2585 2.66512L75.3478 2.76642C76.2735 2.77572 77.1629 2.9077 78.0158 3.16237C78.8689 3.40532 79.6623 3.75315 80.3961 4.20585C81.1417 4.64695 81.8161 5.18109 82.4192 5.80827C83.0341 6.42385 83.5546 7.1088 83.9807 7.86311C84.4184 8.61755 84.7502 9.42365 84.976 10.2814C85.2134 11.1393 85.3275 12.0311 85.3183 12.9569C85.3095 13.824 85.1898 14.6666 84.9589 15.4846C84.7397 16.3028 84.4214 17.0789 84.0038 17.8131C83.598 18.5473 83.099 19.222 82.5068 19.8372C81.9147 20.4524 81.2531 20.9848 80.522 21.4345L83.2506 28.0541L77.8895 28.0002L75.7434 22.8984L70.1007 22.8769L70.0501 27.9215ZM94.8701 23.565C95.057 23.6255 95.2441 23.6684 95.4313 23.6937C95.6187 23.7073 95.8061 23.7151 95.9936 23.7169C96.4623 23.7216 96.9141 23.6617 97.349 23.5372C97.7839 23.4126 98.19 23.2351 98.5673 23.0045C98.9565 22.7623 99.2992 22.4727 99.5956 22.1358C99.9038 21.7874 100.154 21.4031 100.345 20.9832L103.825 24.5515C103.374 25.1798 102.853 25.7429 102.262 26.2409C101.682 26.7391 101.051 27.1605 100.368 27.5052C99.6964 27.85 98.9848 28.1066 98.2331 28.2748C97.493 28.4549 96.7304 28.541 95.9453 28.5331C94.6211 28.5198 93.3756 28.2612 92.2087 27.7573C91.0536 27.2535 90.041 26.5577 89.1709 25.67C88.3126 24.7825 87.6376 23.7327 87.1458 22.5206C86.6542 21.2969 86.4156 19.9585 86.4302 18.5054C86.4452 17.0172 86.7107 15.6604 87.227 14.4351C87.7432 13.2098 88.4393 12.1679 89.3151 11.3094C90.2027 10.4511 91.2289 9.78754 92.3938 9.31875C93.5705 8.85007 94.8209 8.62238 96.145 8.63567C96.9301 8.64355 97.6967 8.74501 98.4448 8.94003C99.1929 9.13505 99.8991 9.41168 100.564 9.76993C101.24 10.1283 101.868 10.5682 102.449 11.0897C103.03 11.5995 103.54 12.173 103.979 12.8102L94.8701 23.565ZM97.4302 13.6938C97.2084 13.6095 96.9863 13.5545 96.7639 13.5288C96.5532 13.5033 96.3307 13.4893 96.0963 13.487C95.4401 13.4804 94.8178 13.5972 94.2294 13.8374C93.6529 14.066 93.1456 14.4008 92.7075 14.8417C92.2812 15.2828 91.9418 15.8184 91.6894 16.4488C91.4371 17.0673 91.307 17.7692 91.2991 18.5543C91.2973 18.7301 91.3012 18.9294 91.3107 19.1521C91.3319 19.375 91.3589 19.6038 91.3917 19.8385C91.4363 20.0616 91.4869 20.2789 91.5434 20.4905C91.5998 20.702 91.6741 20.8902 91.7662 21.0552L97.4302 13.6938ZM122.28 13.3631L118.729 16.8609C118.558 16.3669 118.323 15.9251 118.022 15.5353C117.721 15.1339 117.379 14.7964 116.995 14.523C116.623 14.2497 116.214 14.0406 115.771 13.8955C115.327 13.7504 114.87 13.6755 114.402 13.6708C113.745 13.6642 113.123 13.7927 112.534 14.0563C111.958 14.3201 111.45 14.6959 111.011 15.1837C110.585 15.6599 110.245 16.2307 109.992 16.8962C109.739 17.5617 109.609 18.2987 109.601 19.1072C109.594 19.7634 109.711 20.3799 109.951 20.9565C110.192 21.5332 110.521 22.0404 110.938 22.4782C111.367 22.9162 111.868 23.2611 112.439 23.5129C113.023 23.7649 113.643 23.8941 114.299 23.9007C114.768 23.9054 115.219 23.8455 115.654 23.721C116.089 23.5964 116.495 23.4189 116.873 23.1883C117.262 22.9461 117.605 22.6565 117.901 22.3196C118.209 21.9711 118.459 21.5869 118.651 21.1669L122.131 24.7353C121.679 25.3636 121.158 25.9267 120.567 26.4247C119.988 26.9228 119.356 27.3443 118.673 27.689C118.002 28.0338 117.29 28.2904 116.538 28.4586C115.798 28.6387 115.036 28.7248 114.251 28.7169C112.926 28.7036 111.681 28.445 110.514 27.9411C109.359 27.4255 108.346 26.7298 107.476 25.8538C106.618 24.978 105.942 23.9575 105.45 22.7923C104.958 21.6271 104.719 20.3825 104.732 19.0583C104.746 17.617 105.012 16.272 105.528 15.0232C106.045 13.7744 106.741 12.6915 107.618 11.7744C108.506 10.8458 109.533 10.1178 110.698 9.59042C111.876 9.06315 113.126 8.80617 114.45 8.81946C115.235 8.82734 116.002 8.93465 116.75 9.14139C117.51 9.34825 118.227 9.64844 118.903 10.042C119.591 10.4239 120.219 10.8931 120.788 11.4496C121.368 12.0063 121.865 12.6441 122.28 13.3631ZM141.998 28.6439L140.838 28.6323L139.001 26.0297C138.54 26.4352 138.05 26.8171 137.531 27.1752C137.023 27.5216 136.487 27.8268 135.922 28.0907C135.357 28.3428 134.775 28.5421 134.175 28.6884C133.588 28.8349 132.99 28.905 132.38 28.8989C131.056 28.8856 129.81 28.6505 128.643 28.1934C127.487 27.7365 126.474 27.0817 125.604 26.2292C124.745 25.3651 124.07 24.3153 123.579 23.0798C123.087 21.8443 122.849 20.4415 122.865 18.8712C122.88 17.4065 123.145 16.0673 123.661 14.8536C124.178 13.6283 124.874 12.5805 125.75 11.7104C126.637 10.8404 127.664 10.1709 128.829 9.70214C130.005 9.22174 131.256 8.98819 132.58 9.00149C133.189 9.0076 133.792 9.08983 134.388 9.24817C134.984 9.4065 135.562 9.62325 136.122 9.89842C136.682 10.1736 137.212 10.4953 137.712 10.8637C138.224 11.2321 138.7 11.6295 139.141 12.0558L141.027 9.84219L142.187 9.85384L141.998 28.6439ZM137.261 19.0158C137.267 18.3596 137.145 17.7255 136.893 17.1136C136.653 16.49 136.319 15.9417 135.89 15.4686C135.461 14.9838 134.956 14.5979 134.372 14.3108C133.801 14.012 133.187 13.8594 132.531 13.8528C131.875 13.8462 131.253 13.9513 130.665 14.1681C130.088 14.3849 129.581 14.708 129.143 15.1372C128.717 15.5665 128.378 16.1022 128.125 16.7443C127.873 17.3746 127.742 18.0999 127.734 18.9201C127.726 19.7404 127.841 20.474 128.081 21.121C128.321 21.7562 128.649 22.2928 129.067 22.7306C129.496 23.1685 129.997 23.5017 130.569 23.7301C131.152 23.9586 131.772 24.0762 132.429 24.0828C133.085 24.0893 133.701 23.9549 134.278 23.6794C134.867 23.3924 135.381 23.0166 135.819 22.5523C136.257 22.0762 136.603 21.5347 136.855 20.9278C137.119 20.3093 137.254 19.672 137.261 19.0158ZM150.074 28.725L145.24 28.6765L145.504 2.36333L150.338 2.41186L150.074 28.725ZM158.149 28.8061L153.316 28.7575L153.58 2.44441L158.413 2.49294L158.149 28.8061Z" fill="white"/>
</svg>
